<svg width="49" height="41" viewBox="0 0 49 41" fill="none" xmlns="http://www.w3.org/2000/svg">
<rect width="48.6278" height="40.3984" rx="5" fill="black"/>
<path fill-rule="evenodd" clip-rule="evenodd" d="M4.5993 15.9916L14.592 3.73945L32.6338 3.73438L43.7778 18.2739L28.1441 25.3319L14.5957 7.46783L3.74023 18.2888L14.5942 6.19046L28.2815 24.914L43.7778 18.2739L32.5097 4.00044L15.1006 4.47631L28.1932 22.4576L14.5943 4.48742L4.5993 15.9916Z" fill="white"/>
<path fill-rule="evenodd" clip-rule="evenodd" d="M14.5449 13.9453L17.3859 14.4572L17.39 20.6477L14.638 19.8449L16.5769 20.3102V14.6657L14.6886 14.1462L14.5611 19.8306L14.5449 13.9453Z" fill="white"/>
<path fill-rule="evenodd" clip-rule="evenodd" d="M17.381 27.3728L17.3929 21.2173L14.5513 20.3438L14.5391 26.0378L14.6682 20.5423L16.5853 21.2525L16.5905 26.9244L14.6044 26.0593L17.381 27.3728Z" fill="white"/>
<path fill-rule="evenodd" clip-rule="evenodd" d="M11.9121 13.4922L14.024 13.8601L14.0425 19.6797L13.3019 19.4487L13.2988 14.0203L12.0247 13.6728L11.923 19.0289L11.9121 13.4922Z" fill="white"/>
<path fill-rule="evenodd" clip-rule="evenodd" d="M14.0401 25.796L14.0446 20.1863L11.9012 19.5312L11.8945 24.7681L11.9752 19.6647L13.3163 20.1442L13.3091 25.4782L14.0401 25.796Z" fill="white"/>
<path fill-rule="evenodd" clip-rule="evenodd" d="M23.9852 32.5395L23.6127 23.4375L23.2648 32.539L5.6582 24.1115L23.6052 33.8771L41.2273 24.1094L23.9852 32.5395Z" fill="white"/>
<path fill-rule="evenodd" clip-rule="evenodd" d="M23.6291 35.204L41.1432 25.6875L23.6194 36.456L5.55273 25.6875L23.6291 35.204Z" fill="white"/>
</svg>
