<svg width="225" height="225" viewBox="0 0 225 225" fill="none" xmlns="http://www.w3.org/2000/svg">
<path fill-rule="evenodd" clip-rule="evenodd" d="M99.712 50.472C99.712 63.6607 94.4728 76.3092 85.147 85.635C75.8212 94.9608 63.1727 100.2 49.984 100.2C36.7953 100.2 24.1468 94.9608 14.821 85.635C5.49517 76.3092 0.255981 63.6607 0.255981 50.472C0.255981 37.2833 5.49517 24.6348 14.821 15.309C24.1468 5.9832 36.7953 0.744019 49.984 0.744019C63.1727 0.744019 75.8212 5.9832 85.147 15.309C94.4728 24.6348 99.712 37.2833 99.712 50.472ZM163.728 89.432C174.059 89.432 183.966 85.3282 191.271 78.0232C198.576 70.7183 202.68 60.8107 202.68 50.48C202.68 40.1493 198.576 30.2417 191.271 22.9368C183.966 15.6319 174.059 11.528 163.728 11.528C153.397 11.528 143.49 15.6319 136.185 22.9368C128.88 30.2417 124.776 40.1493 124.776 50.48C124.776 60.8107 128.88 70.7183 136.185 78.0232C143.49 85.3282 153.397 89.432 163.728 89.432ZM224.256 164.232C224.256 180.283 217.88 195.676 206.53 207.026C195.18 218.376 179.787 224.752 163.736 224.752C147.685 224.752 132.292 218.376 120.942 207.026C109.592 195.676 103.216 180.283 103.216 164.232C103.216 148.181 109.592 132.788 120.942 121.438C132.292 110.088 147.685 103.712 163.736 103.712C179.787 103.712 195.18 110.088 206.53 121.438C217.88 132.788 224.256 148.181 224.256 164.232ZM78.144 164.232C78.144 171.701 75.1771 178.863 69.8961 184.144C64.6151 189.425 57.4525 192.392 49.984 192.392C42.5155 192.392 35.3529 189.425 30.0719 184.144C24.7908 178.863 21.824 171.701 21.824 164.232C21.824 156.764 24.7908 149.601 30.0719 144.32C35.3529 139.039 42.5155 136.072 49.984 136.072C57.4525 136.072 64.6151 139.039 69.8961 144.32C75.1771 149.601 78.144 156.764 78.144 164.232Z" fill="#B7B7B7"/>
</svg>
