<svg width="128" height="128" viewBox="0 0 128 128" fill="none" xmlns="http://www.w3.org/2000/svg">
<path d="M92.912 127.304C111.906 127.304 127.304 111.906 127.304 92.912C127.304 73.9179 111.906 58.52 92.912 58.52C73.9178 58.52 58.52 73.9179 58.52 92.912C58.52 111.906 73.9178 127.304 92.912 127.304Z" fill="#97CF26"/>
<path d="M28.264 108.921C37.1055 108.921 44.273 101.753 44.273 92.9118C44.273 84.0703 37.1055 76.9028 28.264 76.9028C19.4225 76.9028 12.255 84.0703 12.255 92.9118C12.255 101.753 19.4225 108.921 28.264 108.921Z" fill="#A169F7"/>
<path d="M92.912 50.3999C105.137 50.3999 115.048 40.4893 115.048 28.2639C115.048 16.0386 105.137 6.12793 92.912 6.12793C80.6866 6.12793 70.776 16.0386 70.776 28.2639C70.776 40.4893 80.6866 50.3999 92.912 50.3999Z" fill="#FF6163"/>
<path d="M28.264 56.528C43.8738 56.528 56.528 43.8738 56.528 28.264C56.528 12.6542 43.8738 0 28.264 0C12.6542 0 0 12.6542 0 28.264C0 43.8738 12.6542 56.528 28.264 56.528Z" fill="#00AAFF"/>
</svg>
