<?xml version="1.0"?>
<svg width="102" height="108.4" xmlns="http://www.w3.org/2000/svg" xmlns:svg="http://www.w3.org/2000/svg" enable-background="new 0 0 500 108.4" version="1.1" xml:space="preserve">
 <style type="text/css">.st0{fill-rule:evenodd;clip-rule:evenodd;fill:#004C60;}
	.st1{fill:#004C60;}
	.st2{fill:url(#SVGID_1_);}
	.st3{fill:#FBBC33;}</style>
 <g class="layer">
  <title>Layer 1</title>
  <g id="svg_1">
   <linearGradient gradientTransform="matrix(1 0 0 -1 0 108.084)" gradientUnits="userSpaceOnUse" id="SVGID_1_" x1="1.3" x2="74.59" y1="85.76" y2="18.61">
    <stop offset="0" stop-color="#6BBD3F"/>
    <stop offset="0.43" stop-color="#2CA465"/>
    <stop offset="0.83" stop-color="#148F82"/>
    <stop offset="1" stop-color="#0276A2"/>
   </linearGradient>
   <path class="st2" d="m10.1,108.4l50.6,0l0,-21.3l-39.4,0l0,-43.5l29.4,-20.3l29.3,20.2l0,19.3l21.3,0l0,-24.3c0,-4 -1.7,-7.9 -5.1,-10.1l-39.5,-26.4c-4.1,-2.7 -8.1,-2.7 -12.2,0c-10.7,7.1 -33.6,22.6 -38.4,25.8c-4.9,3.3 -6.1,7.1 -6.1,10.7l0,59.8c0,4.8 5.1,10.1 10.1,10.1l0,0z" id="svg_4"/>
   <path class="st3" d="m60.8,108.4l0,-34.5c0,-6.1 4.8,-11.1 10.8,-11.1l29.7,0l-40.5,45.6c0,0 0,0 0,0z" id="svg_5"/>
  </g>
 </g>
</svg>